<?xml version="1.0" standalone="no"?>
<!DOCTYPE svg PUBLIC "-//W3C//DTD SVG 20010904//EN"
 "http://www.w3.org/TR/2001/REC-SVG-20010904/DTD/svg10.dtd">
<svg version="1.0" xmlns="http://www.w3.org/2000/svg"
 width="260.000000pt" height="260.000000pt" viewBox="0 0 260.000000 260.000000"
 preserveAspectRatio="xMidYMid meet">
<metadata>
Created by potrace 1.11, written by Peter Selinger 2001-2013
</metadata>
<g transform="translate(0.000000,260.000000) scale(0.100000,-0.100000)"
fill="#000000" stroke="none">
<path d="M1120 2398 c-29 -62 -81 -171 -116 -243 -34 -71 -77 -164 -97 -205
-19 -41 -61 -129 -92 -195 -32 -66 -76 -160 -100 -210 -136 -287 -313 -661
-379 -799 -42 -87 -76 -160 -76 -161 0 -1 -36 -78 -81 -171 -132 -275 -130
-270 -102 -254 10 6 95 40 188 76 94 37 175 68 181 71 8 3 16 -21 24 -66 6
-39 14 -71 16 -71 3 0 72 52 154 116 83 64 154 114 159 112 6 -1 46 -46 90
-99 l79 -97 117 43 118 43 36 -19 c90 -46 205 -99 215 -99 6 0 67 27 135 61
69 33 132 61 140 61 9 1 96 -39 193 -87 l178 -88 62 24 c35 13 68 23 73 23 11
0 128 -14 165 -19 121 -17 135 -16 111 11 -4 5 -23 36 -40 68 -18 33 -161 287
-318 565 -158 278 -303 535 -323 571 -44 79 -66 116 -192 339 -54 95 -98 175
-98 177 0 2 -16 28 -35 58 -19 30 -35 58 -35 62 0 3 -15 32 -34 63 -18 31 -45
76 -58 101 -66 119 -190 336 -197 343 -4 4 -32 -43 -61 -105z m105 -333 c15
-27 91 -162 170 -300 78 -137 159 -281 181 -320 21 -38 44 -78 49 -87 76 -130
194 -342 192 -344 -1 -1 -31 17 -67 40 -131 87 -180 116 -180 109 0 -7 42
-211 56 -273 5 -24 -25 6 -256 252 l-65 69 -70 -115 c-38 -63 -72 -112 -76
-108 -3 4 -14 35 -24 70 -10 34 -21 62 -24 62 -4 0 -23 -11 -43 -25 -20 -14
-39 -25 -42 -25 -4 0 -6 27 -6 60 0 33 -3 60 -7 60 -11 -1 -35 -20 -120 -97
-41 -37 -79 -69 -83 -71 -4 -2 5 39 21 90 16 50 29 93 29 95 0 2 -37 -22 -82
-52 -46 -30 -84 -51 -86 -46 -2 5 100 215 226 467 272 546 273 547 276 542 2
-1 16 -25 31 -53z"/>
</g>
</svg>
